<svg width="16" height="16" viewBox="0 0 32 32" fill="none" xmlns="http://www.w3.org/2000/svg">
<path d="M1 31H31M18.974 4.85285C18.974 4.85285 18.974 7.57723 21.6984 10.3016C24.4228 13.026 27.1471 13.026 27.1471 13.026M8.19938 25.9801L13.9206 25.1628C14.7458 25.0449 15.5106 24.6625 16.1001 24.0731L29.8715 10.3016C31.3762 8.79697 31.3762 6.35748 29.8715 4.85285L27.1472 2.12847C25.6425 0.623842 23.203 0.623842 21.6984 2.12847L7.92694 15.8999C7.33746 16.4894 6.95508 17.2542 6.83719 18.0794L6.01988 23.8006C5.83825 25.072 6.928 26.1617 8.19938 25.9801Z" stroke="#28303F" stroke-width="1.5" stroke-linecap="round"/>
</svg>
